HIERARCHY
ROOT root
{
	OFFSET 0.000000 0.000000 0.000000
	CHANNELS 6 Xposition Yposition Zposition Zrotation Yrotation Xrotation
	JOINT lhip
	{
		OFFSET 0.058581 -0.082280 -0.017664
		CHANNELS 3 Zrotation Yrotation Xrotation
		JOINT lknee
		{
			OFFSET 0.043451 -0.386469 0.008037
			CHANNELS 3 Zrotation Yrotation Xrotation
			JOINT lankle
			{
				OFFSET -0.014790 -0.426874 -0.037428
				CHANNELS 3 Zrotation Yrotation Xrotation
				JOINT ltoe
				{
					OFFSET 0.041054 -0.060286 0.122042
					CHANNELS 3 Zrotation Yrotation Xrotation
					End Site
					{
						OFFSET 0.000000 0.000000 0.000000
					}
				}
			}
		}
	}
	JOINT rhip
	{
		OFFSET -0.060310 -0.090513 -0.013543
		CHANNELS 3 Zrotation Yrotation Xrotation
		JOINT rknee
		{
			OFFSET -0.043257 -0.383688 -0.004843
			CHANNELS 3 Zrotation Yrotation Xrotation
			JOINT rankle
			{
				OFFSET 0.019056 -0.420046 -0.034562
				CHANNELS 3 Zrotation Yrotation Xrotation
				JOINT rtoe
				{
					OFFSET -0.034840 -0.062106 0.130323
					CHANNELS 3 Zrotation Yrotation Xrotation
					End Site
					{
						OFFSET 0.000000 0.000000 0.000000
					}
				}
			}
		}
	}
	JOINT lowerback
	{
		OFFSET 0.004439 0.124404 -0.038385
		CHANNELS 3 Zrotation Yrotation Xrotation
		JOINT upperback
		{
			OFFSET 0.004488 0.137956 0.026820
			CHANNELS 3 Zrotation Yrotation Xrotation
			JOINT chest
			{
				OFFSET -0.002265 0.056032 0.002855
				CHANNELS 3 Zrotation Yrotation Xrotation
				JOINT lowerneck
				{
					OFFSET -0.013390 0.211636 -0.033468
					CHANNELS 3 Zrotation Yrotation Xrotation
					JOINT upperneck
					{
						OFFSET 0.010113 0.088937 0.050410
						CHANNELS 3 Zrotation Yrotation Xrotation
						End Site
						{
							OFFSET 0.000000 0.000000 0.000000
						}
					}
				}
				JOINT lclavicle
				{
					OFFSET 0.071702 0.114000 -0.018898
					CHANNELS 3 Zrotation Yrotation Xrotation
					JOINT lshoulder
					{
						OFFSET 0.122921 0.045205 -0.019046
						CHANNELS 3 Zrotation Yrotation Xrotation
						JOINT lelbow
						{
							OFFSET 0.255332 -0.015649 -0.022946
							CHANNELS 3 Zrotation Yrotation Xrotation
							JOINT lwrist
							{
								OFFSET 0.265709 0.012698 -0.007375
								CHANNELS 3 Zrotation Yrotation Xrotation
								End Site
								{
									OFFSET 0.000000 0.000000 0.000000
								}
							}
						}
					}
				}
				JOINT rclavicle
				{
					OFFSET -0.082954 0.112472 -0.023707
					CHANNELS 3 Zrotation Yrotation Xrotation
					JOINT rshoulder
					{
						OFFSET -0.113228 0.046853 -0.008472
						CHANNELS 3 Zrotation Yrotation Xrotation
						JOINT relbow
						{
							OFFSET -0.260127 -0.014369 -0.031269
							CHANNELS 3 Zrotation Yrotation Xrotation
							JOINT rwrist
							{
								OFFSET -0.269108 0.006794 -0.006027
								CHANNELS 3 Zrotation Yrotation Xrotation
								End Site
								{
									OFFSET 0.000000 0.000000 0.000000
								}
							}
						}
					}
				}
			}
		}
	}
}
MOTION
Frames: 14
Frame Time: 0.033333
-0.003950 0.247170 0.927498 104.145188 -3.150640 81.323387 1.436312 0.494827 -16.392621 0.969994 4.839212 43.718251 2.865320 -2.402056 -19.796927 0.000000 -0.000000 0.000000 -7.988058 -11.430499 -14.454750 -13.315572 -15.434627 52.419097 0.763986 -5.319158 -21.700570 0.000000 -0.000000 0.000000 2.561992 7.668169 30.092050 -5.101771 -0.315969 12.613311 -0.413522 3.059828 -0.312700 -4.392852 14.589133 20.268000 1.704341 24.945193 -3.521739 0.483230 -33.450493 -10.285940 -58.747589 -36.205175 0.729605 155.742325 -44.152947 -108.346590 -36.559624 -0.490230 -19.798337 -10.771788 34.760642 -8.363180 73.455627 43.829804 9.654123 -151.855313 45.099657 -90.542422 52.475272 -25.807670 13.175097 
-0.003419 0.245974 0.927089 104.845267 -3.216654 81.316027 1.371813 0.159665 -16.625350 0.947473 4.659191 43.865541 3.012313 -2.569023 -19.695222 0.000000 -0.000000 0.000000 -8.050204 -11.558237 -14.377011 -13.583474 -15.762309 52.757326 0.785556 -5.516828 -21.838031 0.000000 -0.000000 0.000000 2.585309 7.821407 30.216446 -4.999448 -0.220318 12.484083 -0.349848 2.973949 -0.337974 -4.766249 14.431679 20.759131 1.639482 24.608107 -3.871605 0.260096 -33.040946 -10.045672 -58.829808 -36.208731 0.941435 155.807835 -44.314013 -109.323372 -35.907549 -0.465944 -19.352432 -10.459959 34.752568 -7.971855 73.764666 43.697554 9.943606 -151.959416 45.127800 -91.070886 52.107846 -25.997812 13.922115 
-0.003445 0.245223 0.926616 105.359125 -3.268072 81.343634 1.261608 -0.028006 -16.868277 0.994200 4.419466 44.035629 2.974009 -2.742803 -19.707595 0.000000 -0.000000 0.000000 -8.039694 -11.566670 -14.382067 -13.939850 -16.036959 52.993221 0.819351 -5.567344 -21.982824 0.000000 -0.000000 0.000000 2.567211 7.994195 30.361792 -4.867808 -0.196113 12.387336 -0.248155 2.879214 -0.379170 -4.879981 14.527215 20.873717 1.519989 24.168659 -4.141800 0.392196 -32.958065 -9.959752 -59.060195 -36.215939 0.962344 156.063161 -44.100926 -109.202700 -36.381189 -0.647824 -19.538202 -10.347455 34.697264 -7.907401 73.875953 43.650569 9.914616 -152.203272 45.236692 -91.114868 52.123907 -25.814179 13.860258 
-0.003656 0.244800 0.926385 105.675305 -3.274643 81.369220 1.174611 -0.032694 -17.050845 1.058205 4.212483 44.123420 3.039439 -2.882403 -19.673017 0.000000 -0.000000 0.000000 -7.995053 -11.605954 -14.428029 -13.996484 -16.045592 53.104645 0.821892 -5.817929 -22.046627 0.000000 -0.000000 0.000000 2.602668 8.029952 30.461091 -4.777689 -0.152676 12.240700 -0.183913 2.852269 -0.369107 -5.093265 14.247892 20.932643 1.423047 24.026486 -4.120149 0.236051 -33.008121 -9.737219 -58.990496 -36.158341 0.924885 156.151848 -44.092949 -109.307702 -36.638305 -0.560085 -19.330580 -10.294623 34.770597 -7.817433 73.761344 43.590672 9.837682 -152.181707 45.188411 -91.197491 52.248105 -25.919848 13.740016 
-0.003935 0.244670 0.926218 105.943704 -3.276256 81.340680 1.088740 -0.161631 -17.168397 1.139076 4.055840 44.273186 2.950224 -2.969689 -19.649170 0.000000 -0.000000 0.000000 -8.081022 -11.816622 -14.444130 -14.229283 -16.326962 53.348614 0.948053 -5.731455 -21.967545 0.000000 -0.000000 0.000000 2.713336 8.028688 30.651660 -4.743257 -0.205848 12.047623 -0.147580 2.795927 -0.288622 -5.282770 13.991779 21.116315 1.286504 23.790015 -4.462015 0.235570 -33.065188 -9.650038 -59.216219 -36.182970 1.048386 156.087020 -44.156648 -109.203108 -36.799376 -0.585788 -19.337286 -10.344754 34.699694 -7.847679 73.733433 43.638229 9.766541 -152.144232 45.209976 -91.211021 52.258095 -26.017752 13.634867 
-0.003966 0.244677 0.926076 106.103310 -3.211358 81.312029 1.096596 -0.189583 -17.231571 1.140975 3.915792 44.343444 2.988483 -2.986989 -19.633942 0.000000 -0.000000 0.000000 -8.131612 -11.872452 -14.296874 -14.103485 -16.421517 53.296491 0.856524 -5.691560 -22.145812 0.000000 -0.000000 0.000000 2.786791 7.985117 30.743857 -4.692977 -0.300211 11.932962 -0.113706 2.762343 -0.262907 -5.378109 13.790476 21.333948 1.306537 23.689962 -4.642957 0.134859 -33.280103 -9.426590 -59.222171 -36.162101 1.010773 156.162510 -44.041912 -109.070817 -36.899557 -0.434525 -19.564877 -10.384478 34.764788 -7.851341 73.546328 43.612160 9.515697 -152.214797 45.244289 -91.235423 52.346848 -26.029478 13.491980 
-0.004097 0.244796 0.925993 106.263573 -3.155217 81.281480 1.094012 -0.294348 -17.282905 1.158407 3.793053 44.392152 3.076120 -3.081494 -19.584030 0.000000 -0.000000 0.000000 -8.226797 -12.103478 -14.214576 -14.131492 -16.641249 53.357119 0.872824 -5.571619 -22.157677 0.000000 -0.000000 0.000000 2.812043 7.877148 30.940656 -4.662814 -0.476734 11.611470 -0.037491 2.751129 -0.152927 -5.364534 13.625873 21.424327 1.360037 23.761326 -4.657753 0.072679 -33.278334 -9.360129 -59.511044 -36.160740 1.135883 156.207662 -44.049141 -109.038789 -36.610994 -0.621993 -19.761608 -10.451412 34.765545 -7.836548 73.491929 43.685066 9.393169 -152.210619 45.268359 -91.218931 52.217298 -25.918874 13.600487 
-0.004314 0.245017 0.925919 106.334399 -3.109674 81.310852 1.082027 -0.398597 -17.401766 1.205664 3.760691 44.509961 2.993316 -3.032313 -19.592750 0.000000 -0.000000 0.000000 -8.238590 -12.191043 -14.290103 -14.233839 -16.800809 53.481130 0.921497 -5.517529 -22.074860 0.000000 -0.000000 0.000000 2.842115 7.759306 31.086699 -4.683327 -0.612782 11.300463 -0.022258 2.714150 -0.037641 -5.411019 13.518371 21.523397 1.429811 23.696742 -4.714515 -0.022475 -33.375911 -9.283998 -59.541602 -36.097042 1.126241 156.410305 -43.882532 -108.932278 -36.794957 -0.815429 -19.817810 -10.508225 34.871259 -7.822084 73.481610 43.715371 9.303377 -152.253214 45.297436 -91.152983 52.237262 -25.817403 13.423775 
-0.004623 0.244884 0.925727 106.279018 -3.097547 81.468368 1.119761 -0.288625 -17.657792 1.238646 3.770199 44.647927 2.997872 -3.150464 -19.604065 0.000000 -0.000000 0.000000 -8.101852 -12.047932 -14.513101 -14.253637 -16.701928 53.504889 1.002322 -5.639441 -22.150412 0.000000 -0.000000 0.000000 2.692590 7.681472 31.091754 -4.708917 -0.636431 10.920678 -0.009224 2.800181 0.217177 -5.479221 13.405714 21.577286 1.447971 23.674682 -4.796233 0.073052 -33.240198 -9.185483 -59.653621 -36.215848 1.219826 156.643876 -43.779720 -109.029732 -36.768336 -0.838694 -20.135839 -10.593538 34.776463 -7.828584 73.623833 43.779458 9.398629 -152.285527 45.296340 -91.140319 52.268284 -25.700552 13.375996 
-0.004988 0.244994 0.925577 106.378483 -3.096252 81.535974 1.013333 -0.283624 -17.850396 1.249766 3.596547 44.757067 3.001117 -3.108563 -19.584649 0.000000 -0.000000 0.000000 -8.080572 -12.097275 -14.656841 -14.280020 -16.653868 53.591415 1.013968 -5.765263 -22.086346 0.000000 -0.000000 0.000000 2.657581 7.516891 31.279975 -4.800606 -0.773550 10.425714 -0.021697 2.867086 0.442132 -5.781620 13.222711 21.779249 1.526247 23.839005 -4.985103 0.015870 -33.187695 -9.050279 -59.444693 -36.164744 1.153483 156.865323 -43.752962 -109.440508 -36.600178 -0.427931 -20.212770 -10.609536 34.913982 -7.753025 73.636183 43.738567 9.380725 -152.331695 45.233273 -91.330739 52.010166 -25.927209 13.634606 
-0.005043 0.245146 0.925441 106.522787 -3.063373 81.590030 0.996480 -0.400508 -17.958175 1.343798 3.612697 44.829755 3.024759 -3.160514 -19.624192 0.000000 -0.000000 0.000000 -8.084421 -12.098596 -14.678148 -14.357743 -16.790231 53.647026 0.977741 -5.803947 -22.087880 0.000000 -0.000000 0.000000 2.605218 7.372107 31.363070 -4.840599 -0.926704 10.175902 -0.013821 2.925327 0.560054 -6.013264 13.109583 22.224795 1.458749 23.800972 -5.379428 -0.096827 -33.182008 -8.983653 -59.312903 -36.031579 1.045155 157.012444 -43.586896 -109.289939 -36.834287 -0.366323 -20.232379 -10.457629 35.132237 -7.473845 73.508366 43.758361 9.221437 -152.579444 45.198686 -91.429050 52.186888 -25.906383 13.394430 
-0.004927 0.245255 0.925578 106.673181 -3.139853 81.607231 0.895329 -0.468582 -17.961087 1.285867 3.572435 44.787158 2.945642 -3.163157 -19.615981 0.000000 -0.000000 0.000000 -8.236028 -12.222508 -14.609694 -14.343662 -16.846242 53.615160 1.123831 -5.695034 -22.142886 0.000000 -0.000000 0.000000 2.473982 7.276576 31.445452 -4.934262 -1.122686 9.853538 -0.089010 3.061778 0.799786 -6.046162 13.161555 22.503434 1.710286 23.665778 -5.464183 -0.211275 -32.957384 -8.846579 -59.270321 -36.018349 1.077395 156.873541 -43.857919 -109.403379 -36.316345 -0.586677 -20.517560 -10.261364 35.090614 -7.185580 73.748413 43.864481 9.326359 -152.937357 45.139740 -91.609331 51.897983 -25.813015 13.583176 
-0.004400 0.245232 0.926271 106.849428 -3.132589 81.587665 0.923516 -0.535176 -17.803754 1.213164 3.557680 44.505245 2.878801 -3.325463 -19.464325 0.000000 -0.000000 0.000000 -8.298460 -12.237109 -14.301408 -14.372719 -17.149453 53.337438 1.123600 -5.602782 -22.145014 0.000000 -0.000000 0.000000 2.314717 7.197714 31.521969 -4.934564 -1.300986 9.607981 -0.080376 3.173650 0.870316 -5.986967 13.121464 22.736904 1.749542 23.352970 -5.423799 -0.427397 -32.631121 -8.589957 -59.284874 -35.757344 1.140016 156.560635 -44.129828 -109.808430 -36.085609 -1.118121 -20.483449 -9.951706 34.956848 -6.966930 73.940768 44.047025 9.512691 -153.148848 45.063536 -91.967544 51.691408 -25.628100 13.952863 
-0.003409 0.245330 0.927815 107.226723 -2.971922 81.565173 1.002999 -0.536429 -17.537248 1.191124 3.309167 44.049169 2.764369 -3.445084 -19.456422 0.000000 -0.000000 0.000000 -8.276107 -12.483780 -13.746080 -14.277181 -17.613130 52.778728 1.199443 -5.442824 -22.106601 0.000000 -0.000000 0.000000 2.206632 7.009307 31.532652 -4.909820 -1.536720 9.424550 -0.029356 3.266399 0.789132 -5.997831 12.981599 22.348647 1.751952 22.948923 -5.132154 -0.439998 -31.963153 -8.366257 -60.072807 -34.888505 1.454886 157.030459 -44.341885 -110.180573 -36.052722 -1.198277 -20.963283 -9.932293 34.662245 -7.175952 74.077587 44.343124 9.592016 -153.607172 44.936079 -92.533270 52.172077 -25.393186 13.915972 
